# xmcd CD database file
#
# Track frame offsets:
#	150
#	33872
#	54237
#	78161
#	100141
#	122355
#	137050
#	163997
#	184631
#	203046
#	222418
#
# Disc length: 3331 seconds
#
# Revision: 0
# Processed by: cddbd v1.5.1PL0 Copyright (c) Steve Scherf et al.
# Submitted via: CDex 1.51
#
DISCID=8c0d010b
DTITLE=Omnibus - Reverside Vol.2
DYEAR=1900
DGENRE=Jazz
TTITLE0=West coast blues/Wes Montgomery
TTITLE1=Airegin/Wes Montgomery
TTITLE2=S.J.K/Milt Jackson&Wes Montgomery
TTITLE3=Stranger in paradise/George Shearing&Wes Montgomery
TTITLE4=Just plain talkin'/Tadd Dameron
TTITLE5=Swift as the wind/Tadd Dameron
TTITLE6=Stablemates/Philly Joe Jones
TTITLE7=Carioca(El tamnores)/Philly Joe Jones
TTITLE8=Donna lee/Clark Terry
TTITLE9=Work song/Nat Adderley
TTITLE10=Sir John/Blue Mitchell
EXTD=
EXTT0=
EXTT1=
EXTT2=
EXTT3=
EXTT4=
EXTT5=
EXTT6=
EXTT7=
EXTT8=
EXTT9=
EXTT10=
PLAYORDER=
